<svg version="1.1" id="Layer_1" xmlns:x="ns_extend;" xmlns:i="ns_ai;" xmlns:graph="ns_graphs;" xmlns="http://www.w3.org/2000/svg" xmlns:xlink="http://www.w3.org/1999/xlink" x="0px" y="0px" viewBox="0 0 60.2 67.7" style="enable-background:new 0 0 60.2 67.7;" xml:space="preserve">
 <style type="text/css">
  .st0{fill:url(#SVGID_1_);}
	.st1{fill:#FFFFFF;}
 </style>
 <metadata>
  <sfw xmlns="ns_sfw;">
   <slices>
   </slices>
   <sliceSourceBounds bottomLeftOrigin="true" height="67.6" width="60.1" x="0" y="0">
   </sliceSourceBounds>
  </sfw>
 </metadata>
 <g>
  <linearGradient id="SVGID_1_" gradientUnits="userSpaceOnUse" x1="44.6409" y1="342.9785" x2="6.1409" y2="343.3785" gradientTransform="matrix(1 0 0 1 0 -330.1801)">
   <stop offset="0" style="stop-color:#F1562C">
   </stop>
   <stop offset="1" style="stop-color:#F68B27">
   </stop>
  </linearGradient>
  <path class="st0" d="M13.6,11.8c0,0,15.3,0,15.9,0c0.7,0,3.4,0.2,4.8,0.4c17.4,2,23.3,9.8,25.8,13.6c-1.2-7.9-4-14-8-18.1
		c-4.9-5-12.4-7.6-22.3-7.6H0v11.8L13.6,11.8z">
  </path>
 </g>
 <path class="st1" d="M53.2,25.6c1,1.1,1.9,2.2,2.7,3.3c2.8,4,4.2,8.7,4.2,13.5c0,13.9-11.3,25.2-25.2,25.2l-4.6,0.1H6.7
	C3,67.7,0,64.4,0,60.3V16.9h13.7v39h15.9c2.2,0.1,4.5-0.1,6.7-0.5c2-0.5,3.7-1.6,5-3.2c1.4-1.8,2.5-3.8,3-6c0.6-2.2,0.9-4.4,1.1-6.7
	c0.2-2.9,0.2-5.8,0.1-8.6c-0.1-3.2-0.5-6.4-1.2-9.6c-0.2-0.7-0.4-1.3-0.7-1.9c3.5,1.2,6.8,3.3,9.4,6L53.2,25.6z">
 </path>
</svg>