<svg xmlns="http://www.w3.org/2000/svg" height="64" width="64" viewBox="0 0 64 64"><defs><style>.cls-1{fill:#919191;}.cls-2,.cls-3{fill:#e3e3e3;}.cls-2{fill-opacity:0.3;}.cls-4{fill:#0079d6;}</style></defs><title>Architecture_64px</title><g id="Layer_1" data-name="Layer 1"><path class="cls-1" d="M49.82,12.94v6.77H24.6v-6a3.35,3.35,0,0,0-.05-.63,4.42,4.42,0,0,0-2.1-3.18h29A5.09,5.09,0,0,0,49.82,12.94Z"/><path class="cls-1" d="M58.67,19.71H51.13V13.09a3.79,3.79,0,0,1,3.74-3.21c3.64,0,3.79,3.75,3.79,3.79v6Z"/><path class="cls-2" d="M54.88,9.31a4.38,4.38,0,0,0-4.33,3.76l0,41.05H16.25V13.68a4.38,4.38,0,0,1,4.38-4.37Z"/><path class="cls-3" d="M54.88,8.55H20a5.12,5.12,0,0,0-5.12,5.12V55.45H51.1l0-35.74V13.09a3.79,3.79,0,0,1,3.74-3.21c3.64,0,3.79,3.75,3.79,3.79v6H60v-6A5.08,5.08,0,0,0,54.88,8.55Zm-5.06,4.39v6.77l0,34.41H16.25V13.67A3.79,3.79,0,0,1,20,9.88H51.45A5.09,5.09,0,0,0,49.82,12.94Z"/><path class="cls-4" d="M10,27.08l10.77,8.56H10V27.08M4,14.69V41.63H37.93L4,14.69Z"/></g></svg>