<svg xmlns="http://www.w3.org/2000/svg" height="64" width="64" viewBox="0 0 64 64"><defs><style>.cls-1,.cls-2,.cls-4{fill:none;stroke-miterlimit:10;}.cls-2{stroke:#0079d6;stroke-width:3.25px;}.cls-3{fill:#e3e3e3;}.cls-3,.cls-5,.cls-6{opacity:0.5;}.cls-4{stroke:#c8c8c8;stroke-width:1.25px;}.cls-5{fill:#c8c8c8;}.cls-6{fill:#acacac;}</style></defs><title>Concept_64px</title><g id="Layer_1" data-name="Layer 1"><rect class="cls-1" width="64" height="64"/><path class="cls-2" d="M17.05,6.77A5.87,5.87,0,0,0,12.6,8.24c-.92,1-1.39,2.66-1.39,5V21q0,8.71-5.58,10.91v.14q5.58,2.31,5.58,11.42V51q0,6.35,5.84,6.34"/><path class="cls-2" d="M47,57.23a5.87,5.87,0,0,0,4.45-1.47c.92-1,1.39-2.66,1.39-5V43q0-8.72,5.58-10.91v-.14q-5.58-2.31-5.58-11.42V13q0-6.35-5.84-6.34"/><rect class="cls-3" x="17.13" y="13.91" width="29.75" height="9.52"/><rect class="cls-4" x="17.13" y="13.91" width="29.75" height="9.52"/><rect class="cls-5" x="17.13" y="27.24" width="29.75" height="9.52"/><rect class="cls-4" x="17.13" y="27.24" width="29.75" height="9.52"/><rect class="cls-6" x="17.13" y="40.56" width="29.75" height="9.52"/><rect class="cls-4" x="17.13" y="40.56" width="29.75" height="9.52"/></g></svg>