<svg xmlns="http://www.w3.org/2000/svg" height="64" width="64" viewBox="0 0 64 64"><defs><style>.cls-1{isolation:isolate;}.cls-10,.cls-2,.cls-9{fill:none;stroke:#c8c8c8;stroke-miterlimit:10;}.cls-2{stroke-width:1.22px;}.cls-3{fill:#0079d6;}.cls-4{opacity:0.1;mix-blend-mode:multiply;}.cls-5{fill:#404040;}.cls-5,.cls-6{opacity:0.3;}.cls-6{fill:#e3e3e3;}.cls-7{fill:#c8c8c8;}.cls-10,.cls-7{opacity:0.8;}.cls-8{fill:#919191;}.cls-9{stroke-width:1.25px;}</style></defs><title>Deploy_64px</title><g class="cls-1"><g id="Layer_1" data-name="Layer 1"><line class="cls-2" x1="15.63" y1="21.8" x2="31.85" y2="34.43"/><line class="cls-2" x1="26.64" y1="21.93" x2="31.85" y2="34.43"/><line class="cls-2" x1="48.96" y1="21.8" x2="32.67" y2="34.43"/><line class="cls-2" x1="37.88" y1="21.94" x2="32.67" y2="34.43"/><path class="cls-3" d="M49.79,23.11c-.15-1.31-2.71-2.34-5.84-2.34-2.85,0-5.21.85-5.74,2H38c-.53-1.13-2.9-2-5.74-2s-5.21.85-5.74,2h-.23c-.52-1.14-2.89-2-5.73-2-3.14,0-5.69,1-5.85,2.34a17.55,17.55,0,0,1,35.09,0Z"/><g class="cls-4"><path class="cls-5" d="M48.63,58.3H15.37a.93.93,0,0,1-.93-.93V35.82a.93.93,0,0,1,.93-.93h33.8a.38.38,0,0,1,.39.39V57.37A.93.93,0,0,1,48.63,58.3Z"/></g><path class="cls-6" d="M48.63,57.92H15.37a.93.93,0,0,1-.93-.93V35.44a.93.93,0,0,1,.93-.93h33.8a.38.38,0,0,1,.39.39V57A.93.93,0,0,1,48.63,57.92Z"/><path class="cls-7" d="M15,34.56H49.54a.4.4,0,0,1,.4.4v4.28a0,0,0,0,1,0,0H14.06a0,0,0,0,1,0,0V35.51A1,1,0,0,1,15,34.56Z"/><circle class="cls-8" cx="21.4" cy="36.86" r="0.74"/><circle class="cls-8" cx="19.1" cy="36.86" r="0.74"/><circle class="cls-8" cx="16.81" cy="36.86" r="0.74"/><path class="cls-9" d="M15.37,34.51h33.8a.39.39,0,0,1,.39.39V57a.93.93,0,0,1-.93.93H15.37a.93.93,0,0,1-.93-.93V35.44A.93.93,0,0,1,15.37,34.51Z"/><polyline class="cls-10" points="28.85 51.71 25.06 47.92 28.85 44.13"/><polyline class="cls-10" points="36.69 44.13 40.48 47.92 36.69 51.71"/><line class="cls-10" x1="34" y1="42.86" x2="31.42" y2="52.98"/></g></g></svg>