<svg xmlns="http://www.w3.org/2000/svg" height="64" width="64" viewBox="0 0 64 64"><defs><style>.cls-1{isolation:isolate;}.cls-2{opacity:0.1;mix-blend-mode:multiply;}.cls-3{fill:#404040;}.cls-3,.cls-4{opacity:0.3;}.cls-4{fill:#e3e3e3;}.cls-5,.cls-8{fill:none;stroke-miterlimit:10;}.cls-5{stroke:#c8c8c8;stroke-width:1.25px;}.cls-6{fill:#0079d6;}.cls-7{fill:#c8c8c8;}.cls-8{stroke:#fff;stroke-width:1.62px;}.cls-9{fill:#acacac;}</style></defs><title>Download_64px</title><g class="cls-1"><g id="Layer_1" data-name="Layer 1"><g class="cls-2"><path class="cls-3" d="M52.51,52.38H12.41a1.12,1.12,0,0,1-1.12-1.12V25a1.13,1.13,0,0,1,1.12-1.13H53.17a.47.47,0,0,1,.47.47v26.9A1.12,1.12,0,0,1,52.51,52.38Z"/></g><path class="cls-4" d="M52.51,51.92H12.41a1.12,1.12,0,0,1-1.12-1.12V24.56a1.13,1.13,0,0,1,1.12-1.13H53.17a.47.47,0,0,1,.47.47V50.8A1.12,1.12,0,0,1,52.51,51.92Z"/><path class="cls-5" d="M12,23.11H53.64a.48.48,0,0,1,.48.48v27.5A1.15,1.15,0,0,1,53,52.25H12a1.15,1.15,0,0,1-1.15-1.15V24.26A1.15,1.15,0,0,1,12,23.11Z"/><circle class="cls-6" cx="32.5" cy="17.03" r="8.8"/><path class="cls-7" d="M4.46,51.72h56a0,0,0,0,1,0,0v2.5a1.56,1.56,0,0,1-1.56,1.56H6a1.56,1.56,0,0,1-1.56-1.56v-2.5A0,0,0,0,1,4.46,51.72Z"/><line class="cls-8" x1="32.5" y1="12.26" x2="32.5" y2="20.35"/><polyline class="cls-8" points="35.54 17.3 32.5 20.34 29.46 17.3"/><rect class="cls-7" x="20.6" y="35.78" width="23.61" height="3.8" transform="translate(64.81 75.35) rotate(180)"/><rect class="cls-9" x="28.35" y="35.78" width="16.16" height="3.8"/></g></g></svg>