<svg xmlns="http://www.w3.org/2000/svg" height="64" width="64" viewBox="0 0 64 64"><defs><style>.cls-1,.cls-4{fill:#e3e3e3;}.cls-1{fill-opacity:0.3;}.cls-2{fill:none;stroke:#c8c8c8;stroke-miterlimit:10;stroke-width:1.25px;}.cls-3{fill:#c8c8c8;fill-opacity:0.8;}.cls-4{opacity:0.8;}.cls-5{fill:#0079d6;}.cls-6{fill:#919191;}</style></defs><title>Get Started_64px</title><g id="Layer_1" data-name="Layer 1"><path class="cls-1" d="M8.6,16.63H55.44a.57.57,0,0,1,.57.57V51.7a1.37,1.37,0,0,1-1.37,1.37H8.6A1.37,1.37,0,0,1,7.23,51.7V18A1.37,1.37,0,0,1,8.6,16.63Z" transform="translate(66.48 3.23) rotate(90)"/><path class="cls-2" d="M8.33,16.63H55.17a.57.57,0,0,1,.57.57V51.7a1.37,1.37,0,0,1-1.37,1.37h-46A1.37,1.37,0,0,1,7,51.7V18A1.37,1.37,0,0,1,8.33,16.63Z" transform="translate(66.2 3.5) rotate(90)"/><path class="cls-3" d="M41.47,15.14H45l0,35.11a3.56,3.56,0,0,0,3.53,3.06H20.63a3.57,3.57,0,0,1-3.57-3.57V15.14h4.52"/><path class="cls-4" d="M48.19,45.29H23.87V50.2a3,3,0,0,1,0,.52,3.6,3.6,0,0,1-1.71,2.59H45.78l0,0h1.67l.36,0,.4,0h0c2.56-.27,2.68-3,2.68-3.07V45.29Z"/><path class="cls-5" d="M30.08,31.55H25.37a.26.26,0,0,1-.27-.24h0a.17.17,0,0,1,0-.1l5.65-11.28a.26.26,0,0,1,.24-.14H36.6a.25.25,0,0,1,.26.24.2.2,0,0,1,0,.13L30.17,29h6.48a.26.26,0,0,1,.27.24.24.24,0,0,1-.07.16L26.09,40.67c-.1.06-.81.66-.46-.25h0Z"/><path class="cls-6" d="M34.52,8.23a1.55,1.55,0,0,0,0-.22A3.25,3.25,0,1,0,28,8a1.55,1.55,0,0,0,0,.22H21.41v8.44H41.3V8.23Z"/></g></svg>