<svg xmlns="http://www.w3.org/2000/svg" height="64" width="64" viewBox="0 0 64 64"><defs><style>.cls-1{fill:#acacac;}.cls-2,.cls-3{fill:#e3e3e3;}.cls-3{fill-opacity:0.3;}.cls-4,.cls-6{fill:none;stroke-miterlimit:10;}.cls-4{stroke:#c8c8c8;stroke-width:1.25px;}.cls-5{fill:#0079d6;}.cls-6{stroke:#fff;stroke-width:1.85px;}</style></defs><title>HowToGuide_64px</title><g id="Layer_1" data-name="Layer 1"><path class="cls-1" d="M60,19V50.57H35.84a5.33,5.33,0,0,1-3.77,2c-1.43,0-2.23-.45-3.77-2H4.05V19H8.66V44l19.62,1.39a4.17,4.17,0,0,1,3.58,4.12h.22a4.16,4.16,0,0,1,3.58-4.12L55.28,44V19Z"/><path class="cls-2" d="M32,49.54a4.16,4.16,0,0,0-3.57-4.12L8.77,44V11.44l19,1.35A4.16,4.16,0,0,1,32,17Z"/><path class="cls-3" d="M32,49.54a4.16,4.16,0,0,1,3.58-4.12L55.19,44V11.71l-19,1.08A4.16,4.16,0,0,0,32,17Z"/><path class="cls-4" d="M31.71,49.54a4.16,4.16,0,0,0-3.57-4.12L8.52,44V11.44l19,1.35A4.16,4.16,0,0,1,31.71,17Z"/><path class="cls-4" d="M32.19,49.54a4.16,4.16,0,0,1,3.57-4.12L55.38,44V11.44l-19,1.35A4.16,4.16,0,0,0,32.19,17Z"/><circle class="cls-5" cx="31.96" cy="29.13" r="8.8"/><polyline class="cls-6" points="27.12 29.46 30.36 32.71 36.01 25.55"/></g></svg>