<svg xmlns="http://www.w3.org/2000/svg" height="64" width="64" viewBox="0 0 64 64"><defs><style>.cls-1,.cls-7,.cls-8{fill:none;}.cls-2,.cls-3{fill:#e3e3e3;}.cls-2{opacity:0.5;}.cls-3{opacity:0.8;}.cls-4,.cls-5{fill:#acacac;}.cls-5,.cls-6{fill-opacity:0.5;}.cls-6{fill:#c8c8c8;}.cls-7,.cls-8{stroke:#c8c8c8;stroke-miterlimit:10;}.cls-7{stroke-width:1.27px;}.cls-8{stroke-width:1.34px;}.cls-9{fill:#2f77bb;}.cls-10{fill:#fff;}</style></defs><title>Landing_Page_64px</title><g id="Layer_1" data-name="Layer 1"><rect class="cls-1" x="0.22" width="64" height="64"/><rect class="cls-2" x="4.75" y="18.75" width="54.5" height="39.25" rx="1.17"/><path class="cls-3" d="M4.77,25.44V20.19a1.44,1.44,0,0,1,1.44-1.44H57.79a1.44,1.44,0,0,1,1.44,1.44v5.25Z"/><rect class="cls-4" x="12.25" y="29.25" width="39.39" height="3.07"/><rect class="cls-5" x="12.25" y="34.36" width="7.25" height="19.64"/><rect class="cls-6" x="22.39" y="34.57" width="13.11" height="8.59"/><rect class="cls-6" x="38.64" y="34.57" width="13.11" height="8.59"/><rect class="cls-6" x="22.39" y="45.41" width="13.11" height="8.59"/><rect class="cls-6" x="38.64" y="45.41" width="13.11" height="8.59"/><line class="cls-7" x1="5.13" y1="25.33" x2="58.87" y2="25.33"/><rect class="cls-8" x="4.75" y="18.75" width="54.5" height="39.25" rx="1.17"/><circle class="cls-9" cx="33.5" cy="14.75" r="8.75"/><path class="cls-10" d="M37.05,12.49a3.49,3.49,0,0,0-7,0c0,.06,0,.11,0,.16a7.22,7.22,0,0,0,.25,1.13,23.17,23.17,0,0,0,3.23,5.91,22.84,22.84,0,0,0,3.3-6.07,5.8,5.8,0,0,0,.17-.87s0-.07,0-.1A.41.41,0,0,0,37.05,12.49Zm-3.48,1.63a1.69,1.69,0,1,1,0-3.37,1.69,1.69,0,0,1,0,3.37Z"/></g></svg>