<svg xmlns="http://www.w3.org/2000/svg" height="64" width="64" viewBox="0 0 64 64"><defs><style>.cls-1{isolation:isolate;}.cls-2{fill:#e7e7e7;}.cls-3{fill:#acacac;}.cls-4{fill:#919191;}.cls-10,.cls-5,.cls-6{fill:#e3e3e3;}.cls-5{fill-opacity:0.3;}.cls-6,.cls-9{opacity:0.5;}.cls-7{fill:none;stroke:#c8c8c8;stroke-miterlimit:10;stroke-width:1.25px;}.cls-8{fill:#8f8f8f;fill-opacity:0.1;stroke:#ccc;stroke-linejoin:round;stroke-width:0.96px;}.cls-9{mix-blend-mode:multiply;}.cls-11{fill:#137ad1;}</style></defs><title>Learn_64px</title><g class="cls-1"><g id="Layer_1" data-name="Layer 1"><path class="cls-2" d="M26.1,48.89H37.9a10.25,10.25,0,0,1-.61-3.28H26.71Z"/><path class="cls-3" d="M43,53.52v1a.26.26,0,0,1-.29.23H21.31c-.16,0-.3-.11-.3-.23v-1h.07a7.56,7.56,0,0,0,4.63-3.76,6.93,6.93,0,0,0,.39-.87,9.92,9.92,0,0,0,.62-3.28v-.35H37.29c0,.12,0,.23,0,.35a9.93,9.93,0,0,0,.61,3.28,7,7,0,0,0,.4.87,7.53,7.53,0,0,0,4.62,3.76Z"/><path class="cls-4" d="M37.91,48.89a9.93,9.93,0,0,1-.61-3.28c0-.12,0-6.83,0-7H26.72v7a9.92,9.92,0,0,1-.62,3.28,6.93,6.93,0,0,1-.39.87h12.6A7,7,0,0,1,37.91,48.89Zm-5.9-5a1.79,1.79,0,1,1,1.79-1.79A1.79,1.79,0,0,1,32,43.88Z"/><path class="cls-5" d="M58.85,9.85V38.42H5.15V10.67A1.42,1.42,0,0,1,6.57,9.25H58.26A.59.59,0,0,1,58.85,9.85Z"/><path class="cls-6" d="M58.85,38.54v5.18a1.41,1.41,0,0,1-1.42,1.42H6.57a1.41,1.41,0,0,1-1.42-1.42V38.54Z"/><path class="cls-7" d="M58.85,10V43.76a1.41,1.41,0,0,1-1.42,1.42H6.57a1.41,1.41,0,0,1-1.42-1.42v-33A1.41,1.41,0,0,1,6.57,9.38H58.26A.58.58,0,0,1,58.85,10Z"/><line class="cls-8" x1="5.3" y1="38.54" x2="58.7" y2="38.54"/><g class="cls-9"><path class="cls-10" d="M32,22c-3.66-3-10.82-3.4-10.82-3.4V32.12C26.51,31.26,32,34.83,32,34.83s5.49-3.57,10.83-2.71V18.58S35.36,19.31,32,22Z"/></g><path class="cls-11" d="M32,20.3c-3.66-3-10.82-3.4-10.82-3.4V30.45c5.34-.86,10.83,2.7,10.83,2.7s5.49-3.56,10.83-2.7V16.9S35.36,17.64,32,20.3Z"/></g></g></svg>