<svg xmlns="http://www.w3.org/2000/svg" height="64" width="64" viewBox="0 0 64 64"><defs><style>.cls-1,.cls-3,.cls-4,.cls-5{fill:none;}.cls-2{fill:#e2e2e2;fill-opacity:0.5;}.cls-3,.cls-4{stroke:#acacac;}.cls-3,.cls-4,.cls-5{stroke-miterlimit:10;}.cls-3,.cls-5{stroke-width:1.78px;}.cls-4{stroke-width:1.75px;}.cls-5{stroke:#c8c8c8;}.cls-6{fill:#2f77bb;}.cls-7{fill:#919191;}</style></defs><title>MiniHub_64px</title><g id="Layer_1" data-name="Layer 1"><rect class="cls-1" width="64" height="64"/><rect class="cls-1" width="64" height="64"/><circle class="cls-2" cx="30.58" cy="30.14" r="8.79"/><line class="cls-3" x1="33.56" y1="21.98" x2="36.08" y2="15.94"/><line class="cls-4" x1="37.13" y1="43.29" x2="34.87" y2="38.21"/><line class="cls-3" x1="14" y1="30.25" x2="21.25" y2="30.4"/><circle class="cls-2" cx="11.09" cy="30.16" r="3.05"/><circle class="cls-2" cx="36.91" cy="13.95" r="3.05"/><circle class="cls-3" cx="11.04" cy="29.95" r="3.05"/><circle class="cls-2" cx="38.26" cy="46.05" r="3.05"/><circle class="cls-3" cx="37.86" cy="45.55" r="3.05"/><line class="cls-5" x1="23.31" y1="14.6" x2="26.82" y2="22.35"/><circle class="cls-6" cx="50.51" cy="30.95" r="5.5"/><circle class="cls-6" cx="21.76" cy="10.9" r="5.5"/><circle class="cls-6" cx="22.31" cy="53.6" r="5"/><circle class="cls-3" cx="36.91" cy="13.95" r="3.05"/><line class="cls-5" x1="27.81" y1="38.25" x2="24.06" y2="48.85"/><line class="cls-5" x1="39.12" y1="30.75" x2="45.03" y2="30.86"/><polygon class="cls-7" points="33.01 20.98 33.57 19.66 35.21 20.34 34.7 21.6 33.01 20.98"/><polygon class="cls-7" points="20.99 31.29 19.55 31.25 19.59 29.48 20.95 29.49 20.99 31.29"/><polygon class="cls-7" points="35.75 38.02 36.35 39.37 34.74 40.1 34.19 38.85 35.75 38.02"/><circle class="cls-5" cx="30.58" cy="30.14" r="8.79"/></g></svg>