<svg xmlns="http://www.w3.org/2000/svg" height="64" width="64" viewBox="0 0 64 64"><defs><style>.cls-1{fill:#acacac;}.cls-2,.cls-3{fill:#e3e3e3;}.cls-2{fill-opacity:0.3;}.cls-4,.cls-6{fill:#fff;}.cls-4{stroke:#e3e3e3;stroke-miterlimit:10;}.cls-5{fill:#0079d6;}</style></defs><title>Overview_64px</title><g id="Layer_1" data-name="Layer 1"><polygon class="cls-1" points="40.93 51.66 24.42 54.3 24.42 12.12 40.93 9.48 40.93 51.66"/><polygon class="cls-2" points="57.71 53.19 41.12 51.87 24.53 54.52 7.95 53.19 7.95 12.14 24.53 13.47 41.12 10.82 57.71 12.14 57.71 53.19"/><path class="cls-3" d="M24.41,54.52h-.08L7.13,53.14V10.76l17.23,1.37L40.94,9.48H41l17.2,1.37V53.24L41,51.87ZM8.46,51.91l15.9,1.27,16.58-2.65H41l15.87,1.27V12.09L41,10.82,24.41,13.47h-.08L8.46,12.19Z"/><path class="cls-4" d="M59.63,31.82a3,3,0,0,0-3-3h0A5.48,5.48,0,0,0,46.79,26h-.37a4.42,4.42,0,0,0-.48,8.81l11.1,0A3,3,0,0,0,59.63,31.82Z"/><path class="cls-4" d="M25.61,32.61A3.61,3.61,0,0,0,22,29h-.06a6.6,6.6,0,0,0-11.81-3.41l-.44,0a5.33,5.33,0,0,0-.58,10.62v0H22.48v0A3.6,3.6,0,0,0,25.61,32.61Z"/><circle class="cls-5" cx="32.83" cy="32" r="10"/><polygon class="cls-6" points="36.89 26.93 31.25 30.95 28.77 37.43 34.41 33.4 36.89 26.93"/></g></svg>