<svg xmlns="http://www.w3.org/2000/svg" height="64" width="64" viewBox="0 0 64 64"><defs><style>.cls-1{fill:#919191;}.cls-2{fill:#0079d6;}.cls-3{fill:#c8c8c8;opacity:0.8;}.cls-4{fill:#e3e3e3;fill-opacity:0.5;}.cls-5{fill:none;stroke:#c8c8c8;stroke-miterlimit:10;stroke-width:1.25px;}</style></defs><title>Quickstart_64px</title><g id="Layer_1" data-name="Layer 1"><path class="cls-1" d="M32.06,20.19,14.69,37.55,8.82,31.68,26.19,14.31c1.94-1.94,5.44-3.37,7.34-1.47S34,18.25,32.06,20.19Z"/><polygon class="cls-1" points="20.94 48.04 15.72 42.82 18.54 41.41 22.35 45.21 20.94 48.04"/><path class="cls-2" d="M16.82,44c-2-.24-7.32,2.43-8,11.11.49-.05,1-.1,1.42-.17,7.15-1,9.74-6.09,9.52-8Z"/><path class="cls-1" d="M49.69,37.81,32.32,55.18l-5.88-5.87L43.81,31.94c1.94-1.94,5.44-3.38,7.35-1.47S51.63,35.87,49.69,37.81Z"/><path class="cls-3" d="M14.51,37.74l14-14c-4.4,4.41-16.85-.69-22.73,5.18Z"/><path class="cls-3" d="M26.26,49.49l14-14c-4.41,4.4.69,16.85-5.18,22.73Z"/><path class="cls-4" d="M56.85,7.15C53,3.34,44.26,8,40.38,11.87h0L15,37.21,26.79,49,52.13,23.62C56,19.74,60.66,11,56.85,7.15Z"/><path class="cls-5" d="M56.85,7.27c-1.66-1.66-4.27-1.71-7-.92a23.45,23.45,0,0,0-6.43,3.16,21.54,21.54,0,0,0-3,2.48L15,37.33,26.79,49.08,52.13,23.74C56,19.86,60.66,11.08,56.85,7.27Z"/><path class="cls-2" d="M48.09,21.62a.58.58,0,0,1-.82,0C47,21.4,42.6,17,42.38,16.73a.57.57,0,0,1,0-.82,4,4,0,1,1,5.71,5.71Z"/></g></svg>