<svg xmlns="http://www.w3.org/2000/svg" height="64" width="64" viewBox="0 0 64 64"><defs><style>.cls-1,.cls-6{fill:none;}.cls-2{fill:#919191;}.cls-3{fill:#acacac;}.cls-4{fill:#c8c8c8;}.cls-5,.cls-7{fill:#e3e3e3;}.cls-5{fill-opacity:0.3;}.cls-6{stroke:#c8c8c8;stroke-miterlimit:10;stroke-width:1.25px;}.cls-8{fill:#fff;}.cls-9{fill:#0079d6;}</style></defs><title>Reference_64px</title><g id="Layer_1" data-name="Layer 1"><rect class="cls-1" x="-0.06" y="0.05" width="64" height="64"/><path class="cls-2" d="M32.27,18.07c0-3.54,1-3.85,4.3-5.53L49.09,6v5.67L36.05,15S32.7,17.33,32.27,18.07Z"/><path class="cls-2" d="M31.75,18.07c0-3.54-1-3.85-4.3-5.53L14.94,6v5.67L28,15S31.33,17.33,31.75,18.07Z"/><path class="cls-3" d="M31.75,19.05c0-2.62-1.24-3.85-4.3-4.74L7.8,9.92v5.45L28,16.77S31.33,18.31,31.75,19.05Z"/><path class="cls-4" d="M32.25,19.05c0-2.62,1.24-3.85,4.3-4.74L56.2,9.92v5.45L36,16.77S32.67,18.31,32.25,19.05Z"/><path class="cls-3" d="M32.25,18.55c0-2.62,1.79-3.85,4.3-4.74L56.2,9.42v5.45L37,16.24A8,8,0,0,0,32.25,18.55Z"/><path class="cls-5" d="M32.06,58.11a4.74,4.74,0,0,1,4.07-4.7l22.35-1.59V15L36.8,16.24A4.74,4.74,0,0,0,32.06,21Z"/><path class="cls-6" d="M32.27,58.11a4.74,4.74,0,0,1,4.07-4.7l22.35-1.59V14.7L37,16.24A4.74,4.74,0,0,0,32.27,21Z"/><path class="cls-7" d="M32,58.11a4.74,4.74,0,0,0-4.07-4.7L5.59,51.82V14.7l21.68,1.54A4.74,4.74,0,0,1,32,21Z"/><path class="cls-6" d="M31.73,58.11a4.74,4.74,0,0,0-4.07-4.7L5.31,51.82V14.7L27,16.24A4.74,4.74,0,0,1,31.73,21Z"/><polygon class="cls-8" points="34.19 38.16 31.58 34.8 27.34 34.95 33.55 30.59 34.19 38.16"/><circle class="cls-9" cx="32.06" cy="35.43" r="8.84"/><polygon class="cls-8" points="34.65 40.58 31.43 36.43 26.18 36.62 33.86 31.23 34.65 40.58"/></g></svg>