<svg xmlns="http://www.w3.org/2000/svg" height="64" width="64" viewBox="0 0 64 64"><defs><style>.cls-1,.cls-5{fill:#e3e3e3;}.cls-2{fill:#acacac;}.cls-3,.cls-4{fill:none;stroke-miterlimit:10;stroke-width:1.17px;}.cls-3{stroke:#acacac;}.cls-4{stroke:#c8c8c8;}.cls-5{fill-opacity:0.3;}.cls-6{fill:#0079d6;}.cls-7{fill:#fff;}</style></defs><title>Tutorial_64px</title><g id="Layer_1" data-name="Layer 1"><rect class="cls-1" x="15.21" y="6.69" width="31.57" height="4.29"/><path class="cls-2" d="M41,57.87h-32a4.09,4.09,0,0,1-4.09-4.09V16H9.76V48.9A4.09,4.09,0,0,0,13.85,53H36.91v1.37A4.1,4.1,0,0,0,41,57.87Z"/><path class="cls-3" d="M9.76,16H4.85v37.8a4.09,4.09,0,0,0,4.09,4.09H41a4.1,4.1,0,0,1-4.05-3.51V53"/><path class="cls-1" d="M45.87,53h-32A4.09,4.09,0,0,1,9.76,48.9V11.1h4.93V43.93A4.09,4.09,0,0,0,18.78,48h23v1.46A4.09,4.09,0,0,0,45.87,53Z"/><path class="cls-4" d="M14.69,11.1H9.76V48.9A4.09,4.09,0,0,0,13.85,53h32a4.09,4.09,0,0,1-4-3.51V48"/><path class="cls-5" d="M50.8,48a4.1,4.1,0,0,1-4-3.51l0-38.38h-32v37.8A4.09,4.09,0,0,0,18.78,48Z"/><path class="cls-4" d="M50.8,48a4.1,4.1,0,0,1-4-3.51l0-38.38h-32v37.8A4.09,4.09,0,0,0,18.78,48Z"/><line class="cls-4" x1="27.28" y1="19.78" x2="41.61" y2="19.78"/><line class="cls-4" x1="27.28" y1="27.96" x2="41.61" y2="27.96"/><line class="cls-4" x1="27.28" y1="36.74" x2="41.61" y2="36.74"/><polyline class="cls-4" points="20.1 19.23 21.52 20.65 25.04 17.14"/><polyline class="cls-4" points="20.1 27.55 21.52 28.97 25.04 25.45"/><polyline class="cls-4" points="20.1 36.24 21.52 37.66 25.04 34.15"/><circle class="cls-6" cx="50.35" cy="27.96" r="8.8"/><polygon class="cls-7" points="47 22.51 47.86 32.22 50.06 29.58 52.43 33.42 53.94 32.55 51.57 28.61 55.08 27.77 47 22.51"/></g></svg>