<svg xmlns="http://www.w3.org/2000/svg" height="64" width="64" viewBox="0 0 64 64"><defs><style>.cls-1,.cls-7{fill:none;}.cls-2{fill:#e2e2e2;fill-opacity:0.5;}.cls-3{fill:#acacac;}.cls-4{fill:#c8c8c8;}.cls-5{fill:#2f77bb;}.cls-6{fill:#fff;}.cls-7{stroke:#acacac;stroke-miterlimit:10;stroke-width:1.25px;}</style></defs><title>Video_64px</title><g id="Layer_1" data-name="Layer 1"><rect class="cls-1" width="64" height="64"/><path class="cls-2" d="M59.74,14.9V53.17a1.5,1.5,0,0,1-1.35,1.61H10.33A1.49,1.49,0,0,1,9,53.17V15.83a1.49,1.49,0,0,1,1.34-1.61H59.17A.63.63,0,0,1,59.74,14.9Z"/><path class="cls-3" d="M55.49,10.7v3.47H10.33A1.49,1.49,0,0,0,9,15.78V50H5.47A1.48,1.48,0,0,1,4,48.49V10.7A1.48,1.48,0,0,1,5.47,9.22H54A1.49,1.49,0,0,1,55.49,10.7Z"/><path class="cls-4" d="M9.46,44.84H59.54a.48.48,0,0,1,.48.48v7.63a1.77,1.77,0,0,1-1.77,1.77H10.76A1.77,1.77,0,0,1,9,52.95V45.32A.48.48,0,0,1,9.46,44.84Z"/><circle class="cls-5" cx="34.24" cy="30.22" r="7"/><path class="cls-6" d="M32.74,32V28.21a.26.26,0,0,1,.4-.23l3.56,1.87a.27.27,0,0,1,0,.46l-3.56,1.87A.26.26,0,0,1,32.74,32Z"/><line class="cls-7" x1="13.24" y1="49.47" x2="55.49" y2="49.47"/><path class="cls-4" d="M58.64,15.51v37.6a.46.46,0,0,1-.07.27H10.4a.46.46,0,0,1-.07-.27V15.78a.46.46,0,0,1,.07-.27H58.64m.78-1.34H10.34A1.49,1.49,0,0,0,9,15.78V53.11a1.49,1.49,0,0,0,1.35,1.61h48.3A1.5,1.5,0,0,0,60,53.11V14.84a.63.63,0,0,0-.57-.67Z"/></g></svg>